<svg xmlns="http://www.w3.org/2000/svg" viewBox="0 0 659.14 223.84">
    <path d="M33.57,240.35a14.64,14.64,0,0,1-8.87-3,16.25,16.25,0,0,1-5.8-8.16q-5.05-16.6-5.06-45.45,0-19,2.42-52.37,1.43-19.8,1.85-35.62a10.53,10.53,0,0,1,3.53-7.41A21.9,21.9,0,0,1,30,83.65,33.32,33.32,0,0,1,40.13,82,22.83,22.83,0,0,1,49.6,83.9a8.67,8.67,0,0,1,5.2,5.84q1.29,5.2,7.34,23.51t12.79,36.62q6.73,18.3,10.08,23.65a6.07,6.07,0,0,0,.29-1.78,11.43,11.43,0,0,0-.07-1.21,9.34,9.34,0,0,1-.08-1.21L85.3,163q.21-10.41.71-26.93t1.5-30.6q1-14.07,2.77-17.07a26,26,0,0,1,8.55-6.3,25,25,0,0,1,11.26-3,9.64,9.64,0,0,1,6.55,2.28,8.29,8.29,0,0,1,2.57,6.06,18.24,18.24,0,0,1-.57,4.42q-.72,3.34-2.35,28.71-3,47.37-3,76,0,22.67,2.35,25.15l.07,1.07a12.69,12.69,0,0,1-2.78,7.44,23.08,23.08,0,0,1-7.2,6.38,18.16,18.16,0,0,1-9.26,2.57q-8.62,0-14.18-8.91a368.3,368.3,0,0,1-20.62-40.71Q51.74,166.82,43.9,147l-.64-.93q-.7,11.4-.71,28.71,0,34.41,3.71,44.6a23.74,23.74,0,0,1,1.35,6.48,14.57,14.57,0,0,1-1.64,6.2,15.64,15.64,0,0,1-5.59,6.27A13.06,13.06,0,0,1,33.57,240.35Z" transform="translate(-13.84 -54.12)" style="fill:#ffffff"/>
    <path d="M186.89,233.65a15.46,15.46,0,0,1-5.66-1.07,13.93,13.93,0,0,1-5-3.35,4,4,0,0,1-1.06-1.74,12,12,0,0,1-.43-2q-.15-1-.36-1.86l.07-.14a3.06,3.06,0,0,1-.07-.64c0-.24-.09-.46-.14-.68a.71.71,0,0,0-.29-.46l-.28-.07a.64.64,0,0,0-.39.14,1.59,1.59,0,0,0-.32.36,4,4,0,0,1-.5.43,6.1,6.1,0,0,0-1.36,1.14c-.28.28-.57.54-.85.78a33,33,0,0,1-8.66,5.27,25.47,25.47,0,0,1-9.79,1.93,28,28,0,0,1-4.78-.43,22,22,0,0,1-10.61-5.63,32,32,0,0,1-6.88-9.55A47.86,47.86,0,0,1,126,204.87a86.6,86.6,0,0,1-1.43-16.67v-2.78A107,107,0,0,1,131,152.29a11,11,0,0,1,2.75-4.38,7.64,7.64,0,0,1,4.73-2l1.36-.07a30.16,30.16,0,0,1,7.8,1.21q4.46,1.22,6.09,3.49a7.1,7.1,0,0,1,.93,3.42,9.68,9.68,0,0,1-.79,3.63,61.89,61.89,0,0,0-3.49,12.18q-2.93,14.82-2.92,23.94a38.06,38.06,0,0,0,1.14,10.37,12.59,12.59,0,0,0,2.92,5.59,5.28,5.28,0,0,0,3.63,1.71,4.76,4.76,0,0,0,1.64-.29q5.92-2.13,11.15-9.86a41.65,41.65,0,0,0,6.66-17.71q.44-3.7,1.29-9,1.92-11.55,2.7-22.09.44-3.35,4.81-5.52a20.49,20.49,0,0,1,9.23-2.17,13.48,13.48,0,0,1,6.48,1.53,6.59,6.59,0,0,1,3.42,5.09,14.57,14.57,0,0,1,.14,2.35q0,7.2-1.85,24.23-.93,9.82-1.71,19.8t-.78,17.1a52.64,52.64,0,0,0,.35,6.59,6.44,6.44,0,0,0,1.14,3.45,1.74,1.74,0,0,1,.72,1.22,2,2,0,0,1-.4,1.17c-.26.36-.53.7-.81,1a15.71,15.71,0,0,1-5.63,4A17.13,17.13,0,0,1,186.89,233.65Z" transform="translate(-13.84 -54.12)" style="fill:#ffffff"/>
    <path d="M233.91,235.43a10,10,0,0,1-4.63-1.1,8.54,8.54,0,0,1-3.53-3.67,16.17,16.17,0,0,1-1.6-6.84q-1.22-19.95-1.21-41,0-13.11.57-29.07c0-1-.31-1.42-.93-1.42h-.28c-1.9.1-4.4.14-7.48.14a9,9,0,0,1-6.27-2.46,7.53,7.53,0,0,1-2.35-5.59,9.12,9.12,0,0,1,.35-2.49,8,8,0,0,1,6.34-5.77,31.1,31.1,0,0,1,5.2-.43l3.85.07a3.57,3.57,0,0,0,2.1-.5,2.53,2.53,0,0,0,.75-2q.15-4.71.57-9.48a107.88,107.88,0,0,0,.57-11.9,8.53,8.53,0,0,1,3-6.26,22.13,22.13,0,0,1,7.3-4.53,23,23,0,0,1,8.3-1.67,10.4,10.4,0,0,1,5.74,1.53,5.44,5.44,0,0,1,2.39,5l-.08,1.14q-.21,1.42-.78,6.66t-1.14,11.12q-.57,5.87-.57,8.51a3.59,3.59,0,0,0,.14,1.35,2.49,2.49,0,0,0,1.36.36,10.59,10.59,0,0,0,1.46-.11,36.19,36.19,0,0,1,3.67-.11v-.14h5.55a8.92,8.92,0,0,1,5.77,2.46,8,8,0,0,1,2.36,5.59,8.17,8.17,0,0,1-2.14,5.74,8.6,8.6,0,0,1-5.81,2.63q-3.66.33-9.44.4a23.83,23.83,0,0,0-4.38.28c-.4.14-.6.55-.6,1.21l.21,2.5q-.64,5.7-1.11,17.73t-.46,23.94q0,22.67,1.93,24.44a3.54,3.54,0,0,1,1.49,2.78q0,3.42-5.34,7.23A18.5,18.5,0,0,1,233.91,235.43Z" transform="translate(-13.84 -54.12)" style="fill:#ffffff"/>
    <path d="M285.28,235a14.88,14.88,0,0,1-5.42-1.07,15.47,15.47,0,0,1-5.34-3.63q-2.5-2.72-3.42-10.9a167,167,0,0,1-.93-18.67q0-11,.61-22.15t1.17-19q.29-4.42.43-6.91.36-3.42,4.81-5.24a25.71,25.71,0,0,1,9.8-1.82,24.79,24.79,0,0,1,6.87.93,9.91,9.91,0,0,1,4.95,2.92,1.87,1.87,0,0,1,.43,1.14l-.07.78a18.53,18.53,0,0,1-.57,2.28,10.63,10.63,0,0,0-.64,3.78v.5a62.63,62.63,0,0,1,15-15.92,29.65,29.65,0,0,1,10.69-4.67,23.56,23.56,0,0,1,5.12-.57,20.26,20.26,0,0,1,13.61,5.49,23.87,23.87,0,0,1,6.13,8.83,38.33,38.33,0,0,1,2.46,8.73,57.2,57.2,0,0,1,.67,8.72c0,3-.14,6-.42,8.91a22,22,0,0,1-.93,4.35,7.11,7.11,0,0,1-3.17,4,9.65,9.65,0,0,1-8.8.79q-6.19-2.56-6.2-8.48l.07-1.35a71.62,71.62,0,0,0,.43-7.91,48.08,48.08,0,0,0-1.21-10.69,20.68,20.68,0,0,0-1.14-3.35c-.38-.8-.88-1.21-1.5-1.21a2.9,2.9,0,0,0-1.14.29,17.49,17.49,0,0,0-4.7,3,56.15,56.15,0,0,0-9.33,11,99.51,99.51,0,0,0-8.19,15.39A117,117,0,0,0,300.38,198q-.78,3-2,10.68a88.9,88.9,0,0,0-1.18,13,9.1,9.1,0,0,0,.65,4.2,1.82,1.82,0,0,1,.42,1.21,5.13,5.13,0,0,1-1.81,3.35,15.74,15.74,0,0,1-4.78,3.21A15.32,15.32,0,0,1,285.28,235Z" transform="translate(-13.84 -54.12)" style="fill:#ffffff"/>
    <path d="M398.7,101c-.76,10.72-1.42,14.49-3.05,17.43a27.73,27.73,0,0,1-7.78,8.6,1.93,1.93,0,0,0-.21.17c-3.29,2.54-4.44,3.81-5.35,5.73a10.51,10.51,0,0,0-.56,2.44c-.34,2.3-.65,6.08-1,11.64,0,.29,0,.6-.06.9-1,18.11-1,28.51.07,52.71.33,7.34.48,11.32.53,14.42v.06c-.05,1.31-.09,2.82-.13,4.49,0,1.07,0,2,0,2.89a0,0,0,0,1,0,0c.13,2.56.53,4.21,1.25,5a1.56,1.56,0,0,1,.65,1.24,3.15,3.15,0,0,1-1.22,2,18.53,18.53,0,0,1-1.62,1.36,15.89,15.89,0,0,1-10.08,3.16l-.86,0a15.11,15.11,0,0,1-10.48-4.55q-1.85-2.43-2.48-8.11c.11-1.55.26-3.33.44-5.43a217.87,217.87,0,0,1,2.84-22.61c1.84-11.26,3.14-17.91,8.13-41.52.36-1.74.72-3.47,1.07-5.1.91-4.38,1.66-8,1.85-9a21.28,21.28,0,0,0,.43-4.83,10.12,10.12,0,0,0-1.06-4.27,16.37,16.37,0,0,0-2.12-3.26c-.61-.77-1.38-1.67-2.36-2.8-3-3.42-3.64-4.3-4.62-6.14a14.49,14.49,0,0,1-1.73-5.85c-.16-1.6-.09-3.07.53-10.08.66-7.91,1.11-11.48,2.45-19.93,2.23-13.8,4.8-24.75,6.35-27,.23-.34.5-.61.6-.6.59.05.51,3.22-.37,16.42-.81,11.9-1.1,17.79-1,21.27.11,5,.57,7,1.54,7.12S371,97,372,92.48c.81-3.77,1.46-7.78,3.2-20,2-13.76,2.83-17.94,3.65-17.45s.61,4-.41,18.8c-1.09,15.52-1.21,20.64-.55,23.83.56,2.72,1.93,2.82,2.94.21,1.36-3.43,2.3-9,4.31-25.15,1.7-13.79,2.42-17.52,3.22-16.78S389,60.17,388,79.4c-.82,15.14-.58,20.87.9,21.17.59.11,1-.42,1.61-2.2,1.2-3.4,2.17-9.17,4.21-24.92,1.68-13,2.35-16.7,3-16.79.89-.1,1.7,13.34,1.64,27C399.31,91.48,399.22,93.4,398.7,101Z" transform="translate(-13.84 -54.12)" style="fill:#ffffff"/>
    <path d="M493.45,240.06a11.6,11.6,0,0,1-8-2.78q-5.42-4.84-7.91-16.67-1.06-5.06-1.71-9.83c-.67-4.27-1.57-8.91-2.71-13.89l-1.14-5.2q-1.2-7.33-2.06-7.7a67.46,67.46,0,0,0-15.18-1.85q-5.13,0-10.43.43t-11.65.57a1.64,1.64,0,0,0-1.46.57,3.39,3.39,0,0,0-.54,1.35l-.14.43q-.78,2.41-1.5,4.91l-1,3.28c-.81,2.76-1.6,5.63-2.35,8.62q-2,7.69-4.21,14.25-4.2,13.19-7.8,17.81t-11.86,5.13l-1.28.07a7.59,7.59,0,0,1-5.28-1.74,9.72,9.72,0,0,1-2.74-4.67,23.66,23.66,0,0,1-.82-6.34,74.62,74.62,0,0,1,1.78-11.76,220.49,220.49,0,0,1,6.2-22.94q1.43-4.28,2.71-8.54l1.92-6.2,1.28-4.06q1.78-5.56,3.71-11.05l1.92-5.77q2.64-7.91,4.42-12.11.93-2.28,1.71-4.56,3.56-11.12,9.37-25t10.79-24.69a40.49,40.49,0,0,1,4.1-7.3,18.56,18.56,0,0,1,5.59-5.2,15.35,15.35,0,0,1,8-2l3.28.07q6.84,0,9.12,3.6t4.56,13l2.2,7.84q1.42,4.85,12.9,47.8l11.54,43.53q3.56,15.18,4.63,23.16l.57,3.49a55.38,55.38,0,0,1,.86,5.63l.14,1.35a22.41,22.41,0,0,1,.35,4,14.13,14.13,0,0,1-.21,2.42,13.55,13.55,0,0,1-1.21,3.85,6.46,6.46,0,0,1-2.64,2.56,14.94,14.94,0,0,1-6.12,2.07ZM461.53,159.7c.57,0,.86-.24.86-.71l-.08-.79A136,136,0,0,0,457,135.12l-2-6.48c-.57-1.67-1.1-3.35-1.57-5.06a65.77,65.77,0,0,0-5.7,13.32q-2.7,8.34-4.77,15.75l-1.43,5a2.26,2.26,0,0,0-.21.79c0,.38.33.57,1,.57q9.47,0,18.66.71Z" transform="translate(-13.84 -54.12)" style="fill:#ffffff"/>
    <path d="M527.29,278a8.51,8.51,0,0,1-4.95-1.6,12.21,12.21,0,0,1-4-5.38q-2-5.42-2.78-15.74T514.82,232q0-14.67.64-30.53t1.35-29.31q.57-10,.86-17.32a8.38,8.38,0,0,1,3-6.16,24.13,24.13,0,0,1,15.46-6.16,10.55,10.55,0,0,1,5.81,1.53,5.44,5.44,0,0,1,2.38,4.95l-.07,1.28-.14.72a10,10,0,0,0-.14,1.71l.07.92a69.07,69.07,0,0,1,8.09-7.23,28.44,28.44,0,0,1,9.72-4.59,20.43,20.43,0,0,1,5.27-.72,19.07,19.07,0,0,1,10.62,3.28A25.43,25.43,0,0,1,586.56,156a43.79,43.79,0,0,1,2.5,8.48,47.54,47.54,0,0,1,.78,8.55,65.71,65.71,0,0,1-2.21,16.74,73.54,73.54,0,0,1-5.41,15.11,62.51,62.51,0,0,1-5.92,10,14.09,14.09,0,0,1-1.07,1.35,47,47,0,0,1-5.91,6.84,38.52,38.52,0,0,1-8.19,5.74,23.06,23.06,0,0,1-9.69,2.46H551a21.52,21.52,0,0,1-5.91-.82,17.66,17.66,0,0,1-5.42-2.67c0,.95,0,3.09.11,6.44s.19,7,.36,10.9.38,7.36.64,10.33.58,4.67,1,5.1a3.9,3.9,0,0,1,1.42,3.13,10.78,10.78,0,0,1-2.42,6.09,22.83,22.83,0,0,1-6.09,5.81A13.32,13.32,0,0,1,527.29,278Zm23.94-64a5.61,5.61,0,0,0,2.7-.92,20.59,20.59,0,0,0,6.34-5.06,67.16,67.16,0,0,0,7-11.33,56.45,56.45,0,0,0,5.06-19.95c.1-1.32.15-2.63.15-3.91a34.13,34.13,0,0,0-.5-5.85,23.34,23.34,0,0,0-1.78-5.62q-1.29-2.85-3.42-2.85a5.75,5.75,0,0,0-2.85.92,26.78,26.78,0,0,0-8.34,7.84,46.29,46.29,0,0,0-5.31,9.83q-2,5.2-3.59,10.54a45.12,45.12,0,0,0-1.43,12.12c.1.8.17,1.66.21,2.56a34.17,34.17,0,0,0,.47,4.52,12,12,0,0,0,1.81,4.53C548.78,213,549.94,213.91,551.23,213.91Z" transform="translate(-13.84 -54.12)" style="fill:#ffffff"/>
    <path d="M610.43,278a8.51,8.51,0,0,1-4.95-1.6,12.21,12.21,0,0,1-4-5.38q-2-5.42-2.78-15.74T598,232q0-14.67.64-30.53T600,172.17q.56-10,.85-17.32a8.38,8.38,0,0,1,3-6.16,24.13,24.13,0,0,1,15.46-6.16,10.55,10.55,0,0,1,5.81,1.53,5.44,5.44,0,0,1,2.39,4.95l-.08,1.28-.14.72a10,10,0,0,0-.14,1.71l.07.92a69.07,69.07,0,0,1,8.09-7.23,28.44,28.44,0,0,1,9.72-4.59,20.43,20.43,0,0,1,5.27-.72,19.07,19.07,0,0,1,10.62,3.28A25.43,25.43,0,0,1,669.7,156a43.79,43.79,0,0,1,2.5,8.48A47.54,47.54,0,0,1,673,173a65.71,65.71,0,0,1-2.21,16.74,73.54,73.54,0,0,1-5.41,15.11,62.51,62.51,0,0,1-5.92,10,14.09,14.09,0,0,1-1.07,1.35,47,47,0,0,1-5.91,6.84,38.27,38.27,0,0,1-8.19,5.74,23.06,23.06,0,0,1-9.69,2.46h-.43a21.52,21.52,0,0,1-5.91-.82,17.66,17.66,0,0,1-5.42-2.67c0,.95,0,3.09.11,6.44s.19,7,.36,10.9.38,7.36.64,10.33.58,4.67,1,5.1a3.91,3.91,0,0,1,1.43,3.13,10.8,10.8,0,0,1-2.43,6.09,22.83,22.83,0,0,1-6.09,5.81A13.3,13.3,0,0,1,610.43,278Zm23.94-64a5.58,5.58,0,0,0,2.7-.92,20.47,20.47,0,0,0,6.34-5.06,67.87,67.87,0,0,0,7-11.33,56.65,56.65,0,0,0,5.05-19.95c.1-1.32.15-2.63.15-3.91a34.13,34.13,0,0,0-.5-5.85,23.34,23.34,0,0,0-1.78-5.62q-1.29-2.85-3.42-2.85a5.75,5.75,0,0,0-2.85.92,26.78,26.78,0,0,0-8.34,7.84A46.29,46.29,0,0,0,633.4,177q-2,5.2-3.59,10.54a45.12,45.12,0,0,0-1.43,12.12c.1.8.17,1.66.21,2.56a34.17,34.17,0,0,0,.47,4.52,12,12,0,0,0,1.81,4.53C631.92,213,633.08,213.91,634.37,213.91Z" transform="translate(-13.84 -54.12)" style="fill:#ffffff"/>
</svg>